<?xml version="1.0" encoding="utf-8"?>
<!-- Generator: Adobe Illustrator 27.5.0, SVG Export Plug-In . SVG Version: 6.00 Build 0)  -->
<svg version="1.1" id="Layer_1" xmlns="http://www.w3.org/2000/svg" xmlns:xlink="http://www.w3.org/1999/xlink" x="0px" y="0px"
	 viewBox="0 0 418.438 515.003" style="enable-background:new 0 0 418.438 515.003;" xml:space="preserve">
<g>
	<g>
		<g>
			<path style="fill:#EFB291;" d="M119.595,367.322c1.03,2.026,2.334,3.941,3.646,5.792c5.552,7.831,12.547,14.591,19.96,20.647
				c13.563,11.079,29.865,18.44,47.045,21.713c8.572,1.633,17.471,2.416,26.194,1.946c8.405-0.452,16.722-2.203,24.63-5.074
				c7.994-2.902,15.566-6.954,22.457-11.935c6.925-5.005,12.839-10.957,18.368-17.439c5.845-6.852,11.44-13.962,16.16-21.645
				c0.296-0.481,0.588-0.965,0.876-1.451c-11.494-5.928-39.973-15.3-46.006-28.087c-6.059-12.844-0.989-81.48-0.989-81.48h-83.434
				c0,0,5.616,74.084-3.688,83.387c-11.256,11.256-38.666,23.534-47.632,28.07C117.911,363.649,118.679,365.52,119.595,367.322z"/>
			<path style="opacity:0.64;fill:#EFB291;" d="M170.03,304.616c1.969,1.673,3.855,3.45,5.848,5.093
				c3.39,2.796,7.274,4.903,11.259,6.728c7.935,3.633,16.538,5.683,25.27,5.823c7.241,0.116,14.498-0.905,21.462-2.874
				c5.676-1.605,11.182-3.867,16.301-6.806c-1.005-24.749,1.766-62.272,1.766-62.272h-83.434
				C168.503,250.308,170.782,280.384,170.03,304.616z"/>
			<path style="opacity:0.64;fill:#EFB291;" d="M258.547,338.724c-0.248,2.563-0.573,5.117-1.002,7.657
				c-1.03,6.089-2.649,12.115-5.24,17.735c-2.497,5.417-5.949,10.361-10.441,14.309c-4.255,3.741-9.228,6.597-14.518,8.602
				c-5.386,2.041-11.098,3.197-16.843,3.552c-5.782,0.357-11.625-0.105-17.273-1.399c-5.552-1.272-11.017-3.354-15.845-6.4
				c-5.05-3.186-9.149-7.641-11.682-13.065c-3.07-6.574-4.039-13.86-4.832-20.996c-0.372-3.352-0.134-6.675-0.001-10.034
				c0.02-0.509,0.038-1.021,0.049-1.535c-12.74,10.218-35.681,20.542-43.736,24.618c0.728,1.884,1.496,3.755,2.412,5.556
				c1.03,2.026,2.334,3.941,3.646,5.792c5.552,7.831,12.547,14.591,19.96,20.647c13.563,11.079,29.865,18.44,47.045,21.713
				c8.572,1.633,17.471,2.415,26.194,1.946c8.405-0.452,16.722-2.203,24.63-5.074c7.994-2.902,15.566-6.954,22.457-11.935
				c6.925-5.005,12.839-10.957,18.368-17.439c5.845-6.852,11.44-13.962,16.16-21.645c0.296-0.481,0.588-0.965,0.876-1.451
				C289.628,355.077,269.195,348.021,258.547,338.724z"/>
			<path style="fill:#C4C6C8;" d="M412.161,507.278c-3.101-15.249-15.953-97.977-25.469-110.891
				c-10.113-13.724-89.705-41.301-121.743-56.604c0.359,1.128,0.673,2.271,0.934,3.426c1.143,5.066,1.388,10.319,0.922,15.485
				c-0.469,5.208-1.643,10.355-3.471,15.254c-1.756,4.709-4.11,9.221-7.145,13.236c-2.616,3.461-5.776,6.444-9.314,8.949
				c-3.68,2.606-7.72,4.681-11.919,6.31c-4.378,1.698-8.944,2.907-13.577,3.67c-2.701,0.445-5.427,0.737-8.16,0.881V406.8
				c-1.437,0.131-2.877,0.223-4.318,0.266c-0.281,0.008-0.563,0.01-0.844,0.015c-0.282-0.005-0.563-0.006-0.844-0.015
				c-1.441-0.043-2.881-0.135-4.318-0.266v0.191c-2.733-0.144-5.459-0.436-8.16-0.881c-4.632-0.763-9.198-1.971-13.577-3.67
				c-4.2-1.629-8.239-3.704-11.919-6.31c-3.538-2.505-6.698-5.488-9.314-8.949c-3.034-4.014-5.388-8.527-7.145-13.236
				c-1.827-4.899-3.001-10.046-3.471-15.254c-0.465-5.165-0.221-10.419,0.922-15.485c0.261-1.155,0.574-2.298,0.934-3.426
				c-32.037,15.303-105.923,40.422-116.035,54.146c-8.858,12.022-24.033,89.922-28.854,113.35H412.161z"/>
			<path style="fill:#96999B;" d="M257.317,334.721c0.583,7.819,1.159,32.208-12.372,47.477c-3.732,4.211-8.354,7.472-13.74,9.692
				c-6.38,2.63-14.04,3.9-22.762,3.781c-16.591-0.23-29.076-5.204-37.108-14.781c-12.35-14.726-11.845-35.333-11.114-44.012
				c-0.007,0.003,0.148-0.94,0.141-0.937c-5.79,2.275-11.577,4.536-17.237,7.12c-0.036,13.289,2.158,33.062,15.158,48.628
				c11.341,13.58,28.138,20.619,49.925,20.921c0.465,0.006,0.928,0.01,1.389,0.01c20.633,0,36.811-6.478,48.098-19.266
				c13.922-15.773,16.614-36.046,16.77-49.543C271.466,341.468,259.781,336.442,257.317,334.721z"/>
		</g>
		<path style="fill:#C4C6C8;" d="M92.544,507.278c-0.014-0.405-0.03-0.812-0.043-1.216c-0.095-2.829-0.161-5.659-0.219-8.489
			c-0.114-5.518-0.372-11.046-0.162-16.563c0.202-5.317,0.634-10.622,0.821-15.94c0.16-4.542,0.157-9.116-0.378-13.634
			c-0.649,4.593-1.417,9.169-2.131,13.752c-1.484,9.526-2.507,19.139-2.598,28.787c-0.042,4.438,0.089,8.872,0.287,13.304H92.544z"
			/>
		<path style="fill:#C4C6C8;" d="M329.86,507.278c0.014-0.405,0.03-0.812,0.043-1.216c0.095-2.829,0.16-5.659,0.219-8.489
			c0.114-5.518,0.372-11.046,0.162-16.563c-0.202-5.317-0.634-10.622-0.821-15.94c-0.16-4.542-0.156-9.116,0.378-13.634
			c0.65,4.593,1.417,9.169,2.131,13.752c1.484,9.526,2.508,19.139,2.598,28.787c0.042,4.438-0.089,8.872-0.287,13.304H329.86z"/>
	</g>
	<g>
		<g>
			<g>
				<g>
					<path style="fill:#EFB291;" d="M323.244,196.471c-3.129-9.962-14.211-14.911-24.57-11.087
						c-5.925,2.187-10.224,7.628-12.634,12.973c-1.405,3.115-2.201,6.496-2.612,9.854c-2.128,6.026-3.105,12.631-2.658,18.906
						c0.317,4.445,0.976,12.584,5.853,14.968c4.755,2.325,12.228-1.573,16.225-3.903c5.076-2.958,9.248-7.096,12.63-11.686
						C321.846,217.852,326.552,207.002,323.244,196.471z"/>
					<path style="opacity:0.64;fill:#EB936D;" d="M291.632,242.684c0.642-2.243,1.253-4.495,1.826-6.757
						c2.283-9.018,4.029-18.212,4.718-27.493c0.554-7.464,0.445-15.06-0.926-22.44c-5.191,2.478-8.998,7.457-11.21,12.362
						c-1.405,3.115-2.201,6.496-2.612,9.854c-2.128,6.026-3.105,12.631-2.658,18.906c0.317,4.445,0.976,12.584,5.853,14.968
						C288.093,242.804,289.824,242.926,291.632,242.684z"/>
					<path style="opacity:0.67;fill:#EB936D;" d="M318.306,196.814c-1.154-1.883-3.243-2.985-5.409-3.247
						c-4.987-0.604-10.081,2.891-13.208,6.406c-6.96,7.825-8.183,19.1-8.512,29.077c-0.019,0.584,0.845,0.173,0.904-0.234
						c0.237-1.61,0.477-3.245,0.74-4.889c0.205,1.174,0.504,2.326,0.799,3.358c0.581,2.027,1.873,3.821,4.149,3.927
						c5.495,0.256,9.253-6.234,11.882-9.951c0.247-0.349-0.31-0.446-0.516-0.208c-2.458,2.827-4.996,6.531-8.677,7.9
						c-2.963,1.102-4.297-1.015-5.122-3.428c-0.68-1.989-1.751-4.292-1.315-6.413c0.06-0.294-0.057-0.446-0.235-0.498
						c1.017-4.872,2.463-9.656,4.947-13.904c2.157-3.689,5.443-7.06,9.651-8.399c2.866-0.912,6-0.457,7.789,2.133
						c1.67,2.418,1.183,5.624,1.602,8.398c0.05,0.33,0.583,0.009,0.594-0.221C318.521,203.357,320.193,199.895,318.306,196.814z"/>
				</g>
				<g>
					<path style="fill:#EFB291;" d="M110.717,226.496c3.382,4.591,7.555,8.728,12.63,11.686c3.998,2.33,11.471,6.228,16.225,3.903
						c4.876-2.384,5.536-10.524,5.853-14.968c0.447-6.276-0.53-12.881-2.658-18.906c-0.411-3.358-1.207-6.739-2.612-9.854
						c-2.41-5.345-6.709-10.786-12.634-12.973c-10.358-3.824-21.44,1.125-24.57,11.087
						C99.643,207.002,104.349,217.852,110.717,226.496z"/>
					<path style="opacity:0.64;fill:#EB936D;" d="M134.563,242.684c-0.641-2.243-1.253-4.495-1.826-6.757
						c-2.283-9.018-4.029-18.212-4.718-27.493c-0.554-7.464-0.445-15.06,0.926-22.44c5.191,2.478,8.998,7.457,11.21,12.362
						c1.405,3.115,2.201,6.496,2.612,9.854c2.128,6.026,3.105,12.631,2.658,18.906c-0.317,4.445-0.976,12.584-5.853,14.968
						C138.102,242.804,136.37,242.926,134.563,242.684z"/>
					<path style="opacity:0.67;fill:#EB936D;" d="M107.889,196.814c1.154-1.883,3.243-2.985,5.409-3.247
						c4.987-0.604,10.081,2.891,13.208,6.406c6.96,7.825,8.183,19.1,8.512,29.077c0.019,0.584-0.844,0.173-0.904-0.234
						c-0.237-1.61-0.477-3.245-0.74-4.889c-0.205,1.174-0.504,2.326-0.799,3.358c-0.581,2.027-1.873,3.821-4.149,3.927
						c-5.495,0.256-9.253-6.234-11.882-9.951c-0.247-0.349,0.309-0.446,0.516-0.208c2.458,2.827,4.995,6.531,8.677,7.9
						c2.963,1.102,4.297-1.015,5.122-3.428c0.68-1.989,1.751-4.292,1.315-6.413c-0.061-0.294,0.057-0.446,0.235-0.498
						c-1.017-4.872-2.463-9.656-4.947-13.904c-2.157-3.689-5.443-7.06-9.651-8.399c-2.866-0.912-6-0.457-7.789,2.133
						c-1.67,2.418-1.183,5.624-1.602,8.398c-0.05,0.33-0.583,0.009-0.594-0.221C107.673,203.357,106.001,199.895,107.889,196.814z"
						/>
				</g>
				<path style="fill:#EFB291;" d="M300.631,161.355c1.584-17.813,2.588-35.661,1.294-53.543
					c-0.865-11.958-3.235-24.825-12.193-33.011c-4.091-3.739-9.24-6.17-14.426-8.239c-29.055-11.59-64.822-14.279-95.128-5.777
					c-14.68,4.119-28.325,11.379-40.518,20.371c-4.833,3.564-9.262,7.554-12.425,12.123c-0.644,1.453-1.188,2.949-1.599,4.481
					c-0.526,1.96-0.657,3.991-0.791,6.008c-2.169,32.714,1.013,65.496,5.904,97.847c2.099,13.886,4.77,27.638,6.913,41.556
					c2.147,13.938,4.162,32.288,15.516,42.045c6.283,5.4,13.322,9.866,20.34,14.284c6.845,4.31,13.458,9.174,20.85,12.569
					c9.197,4.224,20.117,5.465,30.126,2.766c10.511-2.834,19.273-9.658,28.291-15.335c7.017-4.418,14.057-8.885,20.34-14.284
					c2.754-2.367,5.094-4.963,6.859-8.122c1.695-3.033,2.887-6.312,3.805-9.643c7.12-25.854,11.622-52.452,14.216-79.094
					C298.88,179.366,299.829,170.365,300.631,161.355z"/>
				<path style="opacity:0.64;fill:#EB936D;" d="M207.438,236.912c-3.481-0.484-6.847-1.506-10.08-2.836
					c0.264,1.336,0.905,2.603,1.834,3.708c1.575,1.876,3.727,3.279,6.005,4.211c2.096,0.858,4.474,1.42,6.754,1.136
					c2.876-0.358,5.695-1.421,8.134-2.94c2.145-1.336,4.13-3.149,5.199-5.437c-2.06,0.764-4.171,1.395-6.332,1.821
					C215.157,237.323,211.271,237.446,207.438,236.912z"/>
				<g>
					<g>
						<path style="fill:#FFFFFF;" d="M275.92,192.653c-2.249-3.204-5.111-6.062-8.539-8.057c-3.93-2.287-8.427-3.507-12.973-3.831
							c-0.376-0.027-0.754-0.041-1.132-0.049c-2.276,0.218-4.485,0.637-6.539,1.247c-2.747,0.816-5.178,2.087-7.195,3.715
							c-2.797,2.549-4.778,5.64-6.024,8.986c-1.232,3.31-1.831,6.788-2.182,10.288c2.516,1.457,5.363,2.508,8.238,3.283
							c3.783,1.02,7.695,1.614,11.587,1.93c1.701,0.138,3.406,0.223,5.107,0.253c2.214-0.202,4.408-0.551,6.55-1.049
							c1.125-0.262,2.24-0.571,3.342-0.922c4.543-2.387,8.771-5.387,12.544-8.822c0.051-0.688,0.075-1.38,0.075-2.073
							C277.96,195.847,277.01,194.204,275.92,192.653z"/>
						<g>
							<g>
								<path style="fill:#B65A2C;" d="M268.164,197.385c-1.689,7.503-9.279,12.246-16.953,10.594
									c-7.674-1.652-12.525-9.073-10.836-16.575c1.689-7.503,9.28-12.246,16.953-10.594
									C265.003,182.461,269.854,189.882,268.164,197.385z"/>
								<path style="fill:#552400;" d="M264.616,196.621c-1.258,5.587-6.91,9.118-12.624,7.889
									c-5.714-1.23-9.326-6.756-8.068-12.342c1.258-5.587,6.91-9.118,12.624-7.889
									C262.262,185.509,265.874,191.035,264.616,196.621z"/>
								<path style="fill:#FFFFFF;" d="M254.195,188.523c-0.498,2.212-2.736,3.611-4.999,3.124
									c-2.263-0.487-3.694-2.676-3.195-4.888c0.498-2.212,2.737-3.611,5-3.124C253.263,184.122,254.693,186.311,254.195,188.523z"
									/>
								<path style="fill:#FFFFFF;" d="M245.527,192.873c-0.147,0.653-0.808,1.066-1.476,0.922c-0.668-0.144-1.091-0.79-0.943-1.443
									c0.147-0.653,0.808-1.066,1.476-0.923S245.675,192.22,245.527,192.873z"/>
							</g>
						</g>
						<path style="fill:#9E7761;" d="M273.239,203.902c-1.651,1.366-3.681,2.196-5.657,3.018c-2.324,0.967-4.702,1.768-7.181,2.26
							c-5.264,1.044-10.565,0.576-15.822-0.275c-2.866-0.464-5.84-0.978-8.583-1.931c-0.051-0.018-0.147,0.07-0.085,0.107
							c2.212,1.327,4.71,1.95,7.205,2.555c2.816,0.682,5.751,1.029,8.64,1.259c2.624,0.209,5.27,0.063,7.861-0.385
							c2.617-0.453,5.284-1.171,7.688-2.293c1.162-0.542,2.338-1.12,3.435-1.781c0.995-0.6,2.121-1.38,2.725-2.382
							C273.559,203.897,273.363,203.799,273.239,203.902z"/>
					</g>
					<path style="fill:#360E00;" d="M276.243,189.644c-0.752-0.897-1.546-1.746-2.353-2.523c-3.404-3.279-7.595-5.741-12.218-6.969
						c-4.679-1.243-9.827-1.269-14.491,0.063c-4.903,1.4-9.383,4.404-12.268,8.556c-0.343,0.494-0.656,1.002-0.95,1.518
						c-1.905,3.633-2.814,7.759-2.386,11.811c0.189-0.698,0.385-1.394,0.598-2.085c0.191-0.857,0.397-1.709,0.651-2.557
						c0.72-2.406,1.533-4.736,2.88-6.885c2.426-3.869,6.22-6.741,10.585-8.243c8.509-2.928,18.189-0.476,24.847,5.234
						c1.97,1.689,3.731,3.661,5.214,5.772c0.723,1.029,1.412,2.1,2.025,3.21C277.973,194.177,277.279,191.829,276.243,189.644z"/>
				</g>
				<g>
					<g>
						<path style="fill:#FFFFFF;" d="M146.258,193.108c2.249-3.204,5.111-6.062,8.54-8.057c3.93-2.287,8.427-3.507,12.973-3.831
							c0.376-0.027,0.754-0.041,1.132-0.049c2.276,0.218,4.485,0.637,6.539,1.247c2.747,0.816,5.178,2.087,7.194,3.715
							c2.797,2.549,4.778,5.64,6.024,8.986c1.232,3.309,1.831,6.788,2.182,10.289c-2.516,1.457-5.363,2.508-8.238,3.283
							c-3.783,1.02-7.695,1.614-11.586,1.93c-1.701,0.138-3.406,0.222-5.107,0.252c-2.213-0.201-4.408-0.551-6.55-1.049
							c-1.125-0.262-2.24-0.571-3.342-0.922c-4.543-2.387-8.771-5.387-12.544-8.822c-0.051-0.689-0.075-1.38-0.075-2.073
							C144.218,196.302,145.169,194.659,146.258,193.108z"/>
						<g>
							<g>
								<ellipse style="fill:#B65A2C;" cx="168.528" cy="194.911" rx="14.163" ry="13.847"/>
								<path style="fill:#552400;" d="M178.827,197.127c-1.252,5.561-6.878,9.077-12.567,7.853
									c-5.688-1.224-9.284-6.725-8.032-12.286c1.252-5.561,6.879-9.077,12.567-7.853
									C176.484,186.065,180.08,191.566,178.827,197.127z"/>
								<path style="fill:#FFFFFF;" d="M168.454,189.066c-0.496,2.202-2.724,3.595-4.977,3.11c-2.253-0.485-3.677-2.663-3.181-4.866
									c0.496-2.202,2.724-3.595,4.977-3.11C167.525,184.685,168.95,186.863,168.454,189.066z"/>
								<path style="fill:#FFFFFF;" d="M159.825,193.396c-0.146,0.65-0.804,1.061-1.47,0.918c-0.665-0.143-1.086-0.786-0.939-1.437
									c0.146-0.65,0.804-1.061,1.47-0.918C159.551,192.102,159.972,192.746,159.825,193.396z"/>
							</g>
						</g>
						<path style="fill:#9E7761;" d="M148.939,204.357c1.651,1.366,3.681,2.196,5.657,3.018c2.325,0.967,4.702,1.768,7.181,2.26
							c5.265,1.044,10.565,0.576,15.822-0.275c2.866-0.464,5.84-0.978,8.583-1.931c0.051-0.018,0.147,0.07,0.085,0.107
							c-2.212,1.327-4.71,1.95-7.205,2.555c-2.816,0.682-5.751,1.029-8.64,1.259c-2.624,0.209-5.27,0.063-7.861-0.385
							c-2.617-0.453-5.284-1.171-7.688-2.293c-1.162-0.542-2.338-1.12-3.435-1.781c-0.995-0.6-2.121-1.38-2.725-2.382
							C148.62,204.352,148.815,204.254,148.939,204.357z"/>
					</g>
					<path style="fill:#360E00;" d="M145.935,190.099c0.752-0.897,1.546-1.746,2.353-2.523c3.404-3.279,7.595-5.741,12.218-6.969
						c4.679-1.243,9.827-1.269,14.491,0.063c4.903,1.401,9.383,4.405,12.268,8.556c0.343,0.494,0.656,1.002,0.95,1.518
						c1.905,3.633,2.815,7.759,2.386,11.811c-0.189-0.698-0.385-1.394-0.598-2.085c-0.191-0.857-0.397-1.709-0.651-2.557
						c-0.72-2.406-1.532-4.736-2.88-6.885c-2.426-3.869-6.22-6.741-10.585-8.243c-8.509-2.928-18.189-0.476-24.847,5.234
						c-1.97,1.689-3.731,3.661-5.214,5.772c-0.723,1.029-1.412,2.1-2.025,3.21C144.206,194.632,144.9,192.283,145.935,190.099z"/>
				</g>
				<path style="fill:#360E00;" d="M288.632,171.617c-1.384-2.966-2.968-5.727-5.167-7.637c-3.581-3.11-7.974-4.358-12.15-5.029
					c-4.281-0.688-8.606-0.727-12.909-0.499c-5.54,0.293-11.074,0.956-16.555,2.081c-4.441,0.911-8.85,2.13-13.181,3.738
					c0.588,2.312,1.377,4.587,2.347,6.667c0.216,0.238,0.435,0.47,0.656,0.693c0.453,0.456,0.922,0.878,1.403,1.27
					c2.522,0.669,5.136,0.803,7.698,0.665c4.271-0.231,8.495-1.199,12.699-2.177c1.925-0.448,3.85-0.905,5.784-1.28
					c2.315-0.449,4.648-0.77,6.974-1.111c2.577-0.378,5.163-0.686,7.757-0.705c2.386-0.018,4.85,0.113,7.171,0.92
					c2.661,0.925,5.08,2.676,7.556,4.237c0.207-0.208,0.354-0.523,0.256-0.791C288.847,172.318,288.738,171.968,288.632,171.617z"/>
				<path style="fill:#360E00;" d="M135.057,171.617c1.384-2.966,2.968-5.727,5.167-7.637c3.581-3.11,7.974-4.358,12.15-5.029
					c4.281-0.688,8.606-0.727,12.909-0.499c5.54,0.293,11.074,0.956,16.555,2.081c4.441,0.911,8.85,2.13,13.181,3.738
					c-0.588,2.312-1.377,4.587-2.347,6.667c-0.216,0.238-0.435,0.47-0.656,0.693c-0.453,0.456-0.922,0.878-1.403,1.27
					c-2.522,0.669-5.136,0.803-7.698,0.665c-4.271-0.231-8.495-1.199-12.699-2.177c-1.925-0.448-3.85-0.905-5.784-1.28
					c-2.315-0.449-4.648-0.77-6.974-1.111c-2.576-0.378-5.163-0.686-7.757-0.705c-2.386-0.018-4.85,0.113-7.171,0.92
					c-2.661,0.925-5.08,2.676-7.556,4.237c-0.207-0.208-0.354-0.523-0.257-0.791C134.842,172.318,134.951,171.968,135.057,171.617z"
					/>
				<path style="opacity:0.65;fill:#92422B;" d="M222.813,237.962c-2.52,1.873-5.399,3.557-8.553,4.126
					c-1.542,0.278-2.999,0.213-4.505-0.208c-1.502-0.42-2.959-0.995-4.335-1.717c-1.419-0.745-2.721-1.663-3.924-2.706
					c-0.583-0.505-1.135-1.033-1.649-1.605c-0.481-0.536-1.051-1.131-1.375-1.777c-0.064-0.127-0.097-0.28-0.178-0.397
					c-0.081-0.117-0.2-0.175-0.252-0.317c-0.115-0.316-0.058-0.785-0.04-1.11c0.04-0.743,0.196-1.468,0.385-2.187
					c0.399-1.513,0.865-3.014,1.3-4.518c1.213-4.193,2.518-8.357,3.618-12.58c0.037-0.141-0.171-0.104-0.207-0.004
					c-1.394,3.978-2.883,7.924-4.207,11.925c-0.549,1.66-1.115,3.32-1.631,4.99c-0.235,0.762-0.429,1.535-0.563,2.32
					c-0.06,0.354-0.102,0.711-0.111,1.069c-0.005,0.184,0.016,0.369,0.011,0.552c-0.007,0.221-0.11,0.426-0.118,0.644
					c-0.029,0.767,0.487,1.51,0.932,2.088c0.51,0.663,1.069,1.289,1.667,1.877c1.233,1.213,2.633,2.247,4.156,3.089
					c3.027,1.674,6.49,2.484,9.957,1.976c3.721-0.545,7.473-2.428,9.991-5.177C223.443,238.029,223.112,237.74,222.813,237.962z"/>
				<path style="fill:#410400;" d="M312.285,105.126c-0.708-8.136-3.63-16.392-8.586-22.997c-2.424-3.231-5.45-6.117-9.091-8.006
					c-3.898-2.023-8.293-2.92-12.69-2.908c-9.001,0.023-17.995,3.421-25.303,8.436c-3.107,2.132-5.959,4.665-8.442,7.471
					c-2.495,2.819-5.122,6.274-5.577,10.091c-0.097,0.815-0.07,1.646,0.078,2.453c0.115,0.627,1.058,0.331,1.331,0.024
					c1.246-1.405,3.135-2.022,4.936-2.428c1.919-0.433,3.882-0.627,5.83-0.89c0.391-0.053,0.663-0.382,0.725-0.692
					c1.96-0.128,3.929-0.157,5.889-0.173c5.304-0.043,10.865-0.019,15.868,1.919c2.38,0.922,4.568,2.344,6.59,3.865
					c2.033,1.53,3.913,3.249,5.645,5.099c3.407,3.639,6.352,7.756,8.726,12.107c0.771,1.414,1.444,2.876,2.043,4.367
					c0.532,1.326,1.072,2.681,1.435,4.061c0.557,2.119,0.675,4.7,2.084,6.496c0.348,0.443,0.987,0.069,1.241-0.266
					c1.355-1.784,2.205-3.91,2.938-5.996c0.763-2.171,1.512-4.355,2.233-6.54C311.831,115.641,312.741,110.358,312.285,105.126z"/>
				<path style="fill:#80492E;" d="M338.794,90.797c-1.192-4.399-2.736-8.73-4.95-12.744c-2.195-3.98-5.09-7.55-8.612-10.488
					c-4.146-3.458-9.078-5.976-14.183-7.79c-2.447-0.87-4.956-1.469-7.466-2.129c-2.489-0.654-4.996-1.332-7.569-1.573
					c-1.113-0.104-2.229-0.151-3.336,0.032c-0.472,0.078-1.005,0.539-1.022,1.029c-0.217,6.161-1.844,12.158-2.961,18.197
					c-0.541,2.926-0.994,5.851-1.801,8.724c-0.402,1.432-0.871,2.846-1.428,4.228c-0.415,1.031-0.905,2.031-1.319,3.062
					c-0.429,1.068-0.823,2.156-1.32,3.196c-0.359,0.751-0.842,1.755-1.578,2.267c-0.071,0.006-0.142,0.009-0.214,0.015
					c-0.32,0.026-0.653,0.201-0.758,0.519c-0.091,0.277,0.079,0.539,0.387,0.54c3.301,0.007,6.653,0.247,9.761,1.415
					c2.84,1.067,5.342,2.873,7.029,5.362c3.057,4.509,3.668,10.336,3.656,15.615c-0.006,2.594-0.126,5.181-0.605,7.737
					c-0.492,2.623-1.316,5.192-2.394,7.641c-2.165,4.92-5.466,9.422-9.736,12.801c-4.198,3.323-9.494,5.697-14.951,5.926
					c-0.711,0.03-1.423,0.015-2.134,0.004c-0.423-0.007-1.38,0.658-0.913,1.135c4.727,4.831,12.204,6.346,18.77,6.734
					c1.34,0.079,2.688,0.108,4.037,0.084c0.19,1.431,0.319,2.871,0.37,4.329c0.116,3.335,0.096,6.67,0.189,10.005
					c0.103,3.682,0.498,7.355,0.743,11.03c0.26,3.9,0.469,7.812,0.389,11.722c-0.093,4.526-0.292,9.048-0.355,13.576
					c-0.006,0.428,0.387,0.606,0.777,0.536c0.46-0.083,0.782-0.449,0.872-0.877c1.979-9.49,4.488-19.045,8.43-27.953
					c1.942-4.389,4.01-8.766,6.327-12.978c2.202-4.003,4.775-7.823,7.274-11.654c0.749-1.148,1.509-2.29,2.285-3.421
					c1.798-1.26,3.509-2.639,5.097-4.144c7.867-7.454,13.351-17.568,15.567-28.033C343.517,113.297,341.749,101.705,338.794,90.797z
					"/>
				<path style="opacity:0.55;fill:#80492E;" d="M278.968,153.852c3.29-0.816,6.527-1.812,9.756-2.83
					c4.446-1.4,8.543-3.758,11.997-6.831c1.827-1.625,3.476-3.444,4.884-5.43c1.298-1.831,2.365-3.81,3.306-5.837
					c1.685-3.628,2.785-7.511,3.372-11.45c0.601-4.029,0.651-8.14,0.203-12.186c-0.449-4.058-1.423-8.069-2.91-11.885
					c-1.468-3.764-3.462-7.347-5.973-10.545c-2.508-3.194-5.55-5.983-9.01-8.17c-0.173-0.11-0.261-0.4-0.072-0.547
					c2.16-1.687,4.712-2.83,7.504-2.922c4.693-0.155,8.972,2.5,12.295,5.502c2.709,2.447,5.065,5.327,7.005,8.42
					c-0.499-1.493-1.062-2.965-1.719-4.398c-1.864-4.068-4.403-7.896-7.81-10.89c-3.504-3.079-7.829-5.032-12.487-5.695
					c-0.39-0.055-0.282-0.563,0-0.672c0.588-0.227,1.18-0.441,1.779-0.638c4.372-1.44,9.051-2.003,13.64-1.463
					c4.259,0.502,8.367,1.911,12.049,4.058c0.456,0.266,0.905,0.543,1.347,0.83c-0.913-0.951-1.873-1.86-2.892-2.71
					c-4.146-3.458-9.078-5.976-14.183-7.79c-2.447-0.87-4.956-1.469-7.466-2.129c-2.489-0.654-4.996-1.332-7.569-1.573
					c-1.113-0.104-2.229-0.151-3.336,0.032c-0.472,0.078-1.005,0.539-1.022,1.029c-0.217,6.161-1.843,12.158-2.961,18.197
					c-0.541,2.926-0.994,5.851-1.801,8.724c-0.402,1.432-0.871,2.846-1.428,4.228c-0.415,1.031-0.905,2.031-1.319,3.062
					c-0.429,1.068-0.823,2.156-1.32,3.196c-0.359,0.751-0.842,1.755-1.578,2.267c-0.071,0.006-0.142,0.009-0.214,0.015
					c-0.32,0.026-0.653,0.201-0.758,0.519c-0.091,0.277,0.079,0.539,0.387,0.54c3.301,0.007,6.653,0.247,9.761,1.415
					c2.84,1.067,5.342,2.873,7.029,5.362c3.057,4.509,3.668,10.336,3.656,15.615c-0.006,2.594-0.126,5.181-0.605,7.737
					c-0.492,2.623-1.316,5.192-2.394,7.641c-2.165,4.92-5.466,9.422-9.736,12.802c-4.198,3.323-9.494,5.697-14.951,5.926
					c-0.711,0.03-1.423,0.015-2.134,0.004c-0.411-0.006-1.321,0.62-0.947,1.093C273.256,155.156,276.138,154.555,278.968,153.852z"
					/>
				<path style="fill:#80492E;" d="M296.28,59.055c-0.39-3.27-1.272-6.476-2.585-9.507c-2.708-6.251-7.096-11.699-12.322-16.133
					c-5.496-4.664-11.956-8.137-18.721-10.703c-3.41-1.293-6.919-2.395-10.478-3.226c-3.958-0.924-8.017-1.42-12.076-1.638
					c-8.123-0.437-16.25,0.221-24.352,0.722c-4.635,0.286-9.296,0.575-13.943,0.566c-4.285-0.008-8.727-0.217-12.843-1.48
					c-3.369-1.034-6.765-3.073-7.533-6.685c-0.206-0.97-0.21-1.946-0.1-2.929c0.065-0.579-0.829-0.253-0.952,0.093
					c-0.843,2.372-1.619,4.758-1.854,7.274c-0.14,1.498-0.093,3.085,0.338,4.547c-1.308-0.037-2.616-0.059-3.925-0.069
					c-19.802-0.158-38.569,6.509-52.055,21.187c-6.177,6.723-10.365,15.068-17.449,21c-3.14,2.629-6.606,4.979-10.319,6.764
					c-3.749,1.803-7.909,3.123-12.134,2.865c-0.988-0.06-1.946-0.238-2.911-0.447c-0.618-0.134-1.845,0.793-1.059,1.33
					c2.399,1.641,4.89,3.22,7.759,3.946c0.821,0.208,1.649,0.327,2.477,0.379c-0.663,0.593-1.301,1.197-1.912,1.792
					c-3.658,3.558-6.726,7.661-8.859,12.266c-1.226,2.646-2.105,5.438-2.526,8.316c-0.11,0.751,0.947,0.691,1.344,0.395
					c2.214-1.648,4.263-3.483,6.292-5.34c-2.025,2.894-3.682,6.024-4.843,9.397c-2.142,6.224-2.518,12.876-1.609,19.357
					c0.095,0.674,0.203,1.345,0.324,2.013c0.247,1.919,0.611,3.822,1.095,5.69c6.295,24.306,32.409,36.616,43.704,58.184
					c2.435,4.649,4.045,9.645,6.292,14.376c0.536,1.129,2.577,5.288,3.197,6.374c0.461,0.809,2.632-46.517,3.207-49.834
					c0.53-3.06,1.159-6.226,2.4-9.115c3.051,2.759,6.753,4.807,10.799,6.127c0.5,0.163,1.591-0.592,1.099-1.12
					c-3.213-3.447-7.297-9.655-2.957-13.774c1.987-1.886,4.852-2.738,7.51-3.209c2.935-0.521,5.939-0.585,8.914-0.489
					c14.417,0.463,28.411,4.501,42.803,5.17c13.502,0.628,27.684-2.187,38.335-10.765c10.792-8.692,14.756-22.057,20.087-34.145
					c1.359-3.081,2.819-6.154,4.603-9.025c1.452-2.336,3.566-4.655,6.235-5.656c2.735-1.025,5.806,0.241,7.3,2.648
					c1.308,2.107,1.452,4.957,0.792,7.294c-0.179,0.634-0.417,1.256-0.737,1.832c-0.323,0.281-0.651,0.556-0.98,0.829
					c-0.148-0.139-0.505-0.058-0.62,0.159c-0.169,0.319-0.799,0.877-0.04,1.063c0.311,0.076,0.653-0.185,0.909-0.322
					c0.334-0.18,0.656-0.358,0.968-0.574c1.266-0.873,2.419-1.88,3.478-2.985c2.11-2.199,3.832-4.723,5.206-7.417
					c2.815-5.519,4.371-11.577,5.103-17.684C296.544,65.512,296.665,62.289,296.28,59.055z"/>
			</g>
			<path style="fill:#483C36;" d="M146.681,69.89c-4.024,3.025-9.185,4.209-14.198,3.769c-4.964-0.436-9.806-2.414-13.521-5.673
				c-2.044-1.793-3.667-4.034-4.649-6.544c-0.192-0.49-0.983-0.193-1.08,0.225c-0.863,3.708-1.307,7.635-0.167,11.339
				c1.007,3.269,3.276,5.9,6.493,7.266c2.23,0.947,4.647,1.19,7.053,0.999c0.365-0.029,0.797-0.663,0.242-0.691
				c-3.642-0.185-7.533-0.944-10.135-3.645c-2.303-2.39-3.206-5.694-3.257-8.912c-0.024-1.532,0.119-3.067,0.415-4.572
				c1.978,4.061,5.545,7.164,9.726,9.052c4.767,2.152,10.331,2.752,15.448,1.551c2.886-0.677,5.59-1.967,7.872-3.826
				C147.196,70.008,146.973,69.671,146.681,69.89z"/>
			<path style="fill:#483C36;" d="M104.467,156.113c-6.43-4.276-10.104-11.601-11.888-18.806
				c-1.947-7.858-1.907-16.395,1.225-23.962c1.054-2.546,2.399-5.06,4.162-7.21c1.734-2.114,3.876-3.887,5.409-6.161
				c0.1-0.148-0.133-0.163-0.211-0.06c-1.588,2.105-3.715,3.731-5.486,5.677c-1.693,1.86-3.08,4.024-4.206,6.253
				c-2.026,4.01-3.111,8.552-3.366,13.008c-0.219,3.833,0.127,7.711,0.912,11.47c0.822,3.933,2.14,7.839,4.134,11.359
				c2.089,3.686,4.912,7.004,8.772,8.99C104.237,156.831,104.825,156.351,104.467,156.113z"/>
			<path style="fill:#483C36;" d="M127.642,182.356c-2.276-2.182-4.596-4.32-6.81-6.563c-2.375-2.407-4.625-4.939-6.715-7.586
				c-4.166-5.277-7.665-11.122-9.698-17.512c-1.096-3.445-1.677-7.036-1.55-10.648c0.009-0.265-0.419-0.118-0.434,0.09
				c-0.488,6.601,1.328,13.081,4.328,18.95c3.123,6.11,7.377,11.637,12.153,16.6c2.52,2.618,5.188,5.121,8.146,7.264
				C127.385,183.184,127.959,182.661,127.642,182.356z"/>
			<path style="fill:#483C36;" d="M338.661,117.427c-1.972-0.52-3.884-1.413-5.474-2.672c-1.645-1.303-2.987-2.937-4.1-4.689
				c-2.489-3.919-4.061-8.317-5.506-12.685c-1.343-4.059-2.479-8.25-4.347-12.118c-2.248-4.654-6.101-8.654-11.087-10.493
				c-5.019-1.852-10.579-1.309-15.182,1.354c-0.645,0.373-1.266,0.782-1.869,1.216c-0.243,0.175-0.134,0.55,0.174,0.362
				c4.523-2.759,10.134-3.841,15.276-2.205c5.109,1.625,9.101,5.508,11.416,10.18c1.862,3.759,2.968,7.863,4.251,11.832
				c1.399,4.331,2.879,8.722,5.233,12.662c1.503,2.517,3.543,4.991,6.125,6.555c-2.442-0.291-4.828-0.823-7.12-1.843
				c-3.256-1.449-6.188-3.701-8.121-6.669c-1.165-1.79-1.932-3.777-2.346-5.856c-0.032-0.16-0.271-0.024-0.251,0.103
				c0.573,3.686,2.26,7.124,4.955,9.776c2.643,2.599,6.078,4.268,9.694,5.141c2.023,0.489,4.077,0.74,6.154,0.632
				c0.035,0.009,0.069,0.022,0.104,0.031c0.509,0.132,1.028,0.224,1.549,0.294C338.593,118.39,339.176,117.563,338.661,117.427z"/>
			<path style="fill:#483C36;" d="M321.344,126.57c-0.031-0.1-0.198-0.01-0.18,0.077c1.271,6.237,0.135,12.671-3.31,18.074
				c-3.299,5.174-8.284,9.251-13.551,12.418c-3.034,1.824-6.158,3.365-9.437,4.726c-0.181,0.075-0.23,0.422,0.03,0.34
				c6.191-1.936,12.175-5.06,17.092-9.229c4.781-4.055,8.784-9.356,10.045-15.52C322.779,133.801,322.462,130.121,321.344,126.57z"
				/>
			<path style="opacity:0.55;fill:#80492E;" d="M293.695,49.548c-2.056-4.745-5.081-9.026-8.704-12.753
				c-2.898-1.4-5.936-2.531-9.004-3.508c-5.038-1.604-10.181-2.82-15.456-3.385c-11.458-1.228-22.75,0.784-33.23,5.276
				c2.852-0.384,5.698-0.809,8.555-1.155c7.922-0.958,16.162-1.626,24.064-0.166c6.942,1.283,13.457,4.775,15.436,11.838
				c0.073,0.259-0.176,0.494-0.438,0.429c-7.701-1.936-15.692-0.21-22.816,2.897c-6.431,2.804-12.351,6.688-17.834,10.982
				c-4.529,3.547-8.758,7.445-13.185,11.111c-4.783,3.961-9.769,7.793-15.267,10.769c-1.016,0.55-2.066,1.077-3.14,1.563
				c16.741-4.377,30.705-15.53,46.951-21.267c3.189-1.126,6.518-2.093,9.913-2.349c2.517-0.19,5.414,0.031,7.342,1.815
				c2.456,2.273,2.179,6.052,1.727,9.028c-0.764,5.024-2.932,9.789-5.535,14.147c-2.671,4.472-5.893,8.63-9.388,12.515
				c-3.433,3.816-7.128,7.46-11.181,10.647c-8.326,6.546-18.098,11.176-28.479,13.624c-9.694,2.286-19.507,2.479-29.399,1.668
				c-6.209-0.509-12.415-1.044-18.652-1.073c-10.903-0.052-30.595,0.985-30.469,15.654c0.004,0.415-0.567,0.445-0.7,0.093
				c-1.473-3.914-1.761-8.144-1.234-12.263c1.014-7.923,4.728-15.476,9.725-21.726c4.072-5.092,9.329-9.706,15.515-12.185
				c-4.941,0.754-9.715,2.427-14.058,4.868c-9.334,5.247-16.694,14.043-19.119,24.397c-1.194,5.099-0.821,10.203,0.612,15.221
				c1.397,4.894,3.716,9.937,7.61,13.423c0.105,0.094,0.147,0.306,0.056,0.422c-6.859,8.687-4.923,20.719-4.583,30.916
				c0.009,0.263-0.31,0.435-0.536,0.301c-4.291-2.55-8.154-5.744-11.454-9.446c-11.268-12.641-15.962-30.501-12.987-46.95
				c-2.924,2.843-4.207,6.981-4.658,10.915c-0.488,4.257-0.148,8.708,1.218,12.789c0.136,0.407-0.429,0.559-0.651,0.268
				c-2.412-3.157-4.648-6.479-5.988-10.221c-2.462-6.876-1.563-14.352,1.175-21.008c2.574-6.257,6.484-11.875,9.331-18.006
				c-3.091,1.562-5.823,3.701-8.115,6.27c-8.796,9.858-11.754,25.722-6.285,37.784c0.136,0.3-0.155,0.667-0.487,0.477
				c-3.129-1.795-5.622-4.426-7.533-7.419c-2.644-4.14-4.273-8.859-5.23-13.678c0.094,0.673,0.202,1.342,0.324,2.009
				c0.247,1.919,0.611,3.822,1.095,5.69c6.295,24.306,32.409,36.616,43.704,58.184c2.435,4.649,4.045,9.645,6.292,14.376
				c0.536,1.129,2.577,5.288,3.197,6.374c0.461,0.809,2.632-46.517,3.207-49.834c0.53-3.06,1.159-6.226,2.4-9.115
				c3.051,2.759,6.753,4.807,10.799,6.127c0.5,0.163,1.591-0.592,1.099-1.12c-3.213-3.447-7.297-9.655-2.957-13.774
				c1.987-1.886,4.852-2.738,7.51-3.209c2.935-0.521,5.939-0.585,8.914-0.489c14.417,0.463,28.411,4.501,42.803,5.17
				c13.502,0.628,27.684-2.187,38.335-10.765c10.792-8.691,14.756-22.056,20.087-34.144c1.359-3.081,2.819-6.154,4.603-9.026
				c1.452-2.336,3.566-4.655,6.235-5.656c2.735-1.025,5.805,0.241,7.3,2.648c1.308,2.107,1.452,4.957,0.792,7.294
				c-0.179,0.634-0.417,1.256-0.737,1.832c-0.323,0.281-0.651,0.556-0.98,0.829c-0.148-0.139-0.505-0.058-0.62,0.159
				c-0.168,0.319-0.799,0.878-0.04,1.063c0.311,0.076,0.653-0.185,0.909-0.322c0.334-0.18,0.656-0.358,0.968-0.574
				c1.266-0.873,2.419-1.88,3.478-2.985c2.11-2.199,3.832-4.723,5.206-7.417c2.815-5.519,4.371-11.577,5.103-17.684
				c0.387-3.227,0.508-6.45,0.122-9.684C295.89,55.785,295.008,52.579,293.695,49.548z"/>
			<path style="fill:#483C36;" d="M278.828,54.444c-3.971-2.72-8.642-4.107-13.486-4.087c-4.913,0.02-9.736,1.333-14.255,3.14
				c-9.009,3.6-17.075,9.059-24.981,14.522c-7.851,5.425-15.791,10.94-24.787,14.42c-4.415,1.708-9.158,3.071-13.926,3.274
				c-2.39,0.102-4.834-0.101-7.098-0.894c-2.148-0.752-3.777-2.188-5.182-3.905c-0.673-0.822-1.285-1.688-1.931-2.53
				c-0.298-0.388-1.054,0.148-0.822,0.563c1.312,2.339,2.1,4.894,3.232,7.312c1.173,2.504,2.829,4.565,5.078,6.231
				c4.574,3.388,10.232,4.965,15.94,4.796c3.281-0.097,6.473-0.766,9.569-1.81c0.435-0.147,0.507-0.929-0.068-0.762
				c-5.313,1.54-11.062,2.17-16.488,0.812c-2.702-0.676-5.255-1.819-7.544-3.377c-2.303-1.568-4.094-3.49-5.346-5.951
				c-0.622-1.222-1.134-2.489-1.655-3.753c0.402,0.461,0.822,0.906,1.282,1.316c1.666,1.487,3.783,2.32,5.979,2.73
				c4.609,0.861,9.477,0.003,13.93-1.234c9.271-2.576,17.504-7.445,25.376-12.76c7.885-5.325,15.549-10.971,24.101-15.263
				c8.472-4.253,18.471-7.595,27.794-3.913c4.21,1.662,7.82,4.644,10.58,8.133c2.687,3.397,4.554,7.589,4.426,11.945
				c-0.033,1.114-0.198,2.22-0.478,3.299c-0.051,0.195,0.239,0.146,0.286,0.005C291.196,68.164,285.896,59.286,278.828,54.444z"/>
			<path style="fill:#483C36;" d="M280.834,43.465c-0.701-1.275-1.645-2.426-2.706-3.431c-2.294-2.173-5.079-3.827-7.941-5.183
				c-7.243-3.43-15.255-4.861-23.269-4.888c-9.215-0.031-18.315,1.727-27.348,3.319c-4.607,0.812-9.188,1.728-13.771,2.656
				c-4.31,0.873-8.677,1.637-13.088,1.735c-6.07,0.134-14.057-1.096-16.111-7.69c-0.245-0.786-0.503-1.578-0.561-2.4
				c-0.022-0.318-0.467-0.167-0.538,0.052c-0.859,2.663-1.491,5.521-0.968,8.311c0.532,2.842,2.255,5.312,4.466,7.172
				c0.202,0.17,0.685-0.203,0.49-0.411c-1.904-2.032-3.697-4.208-4.298-6.967c-0.478-2.193-0.188-4.421,0.383-6.568
				c0.025,0.296,0.059,0.591,0.123,0.881c0.159,0.716,0.398,1.412,0.709,2.078c0.583,1.25,1.431,2.348,2.486,3.253
				c2.273,1.949,5.27,2.791,8.208,3.172c8.825,1.145,17.709-1.456,26.289-3.106c4.709-0.905,9.436-1.721,14.165-2.521
				c4.537-0.767,9.077-1.476,13.676-1.777c8.623-0.565,17.393,0.215,25.487,3.324c5.575,2.142,11.703,5.428,14.223,11.032
				c0.29,0.646,0.46,1.312,0.555,2.01c0.032,0.234,0.479,0.05,0.463-0.147C281.843,46,281.502,44.68,280.834,43.465z"/>
			<path style="fill:#483C36;" d="M160.708,92.226c-1.426,0.242-2.856,0.468-4.263,0.803c-1.424,0.339-2.82,0.792-4.203,1.267
				c-2.831,0.972-5.581,2.144-8.215,3.551c-5.213,2.785-9.98,6.426-13.55,11.103c-3.492,4.575-5.717,10.2-5.927,15.93
				c-0.205,5.584,1.279,11.224,3.882,16.175c2.558,4.866,6.425,9.36,11.613,11.641c0.622,0.274,1.259,0.513,1.906,0.723
				c0.382,0.124,0.917-0.502,0.442-0.694c-5.03-2.03-9.039-6.072-11.777-10.591c-2.827-4.666-4.543-10.116-4.723-15.546
				c-0.182-5.499,1.492-10.935,4.515-15.558c3.073-4.701,7.473-8.423,12.332-11.285c4.962-2.923,10.38-4.793,15.855-6.557
				c0.692-0.223,1.387-0.43,2.09-0.618C160.889,92.515,160.997,92.177,160.708,92.226z"/>
		</g>
		<g>
			<path style="opacity:0.65;fill:#92422B;" d="M251.277,255.276c-0.004-0.015-0.006-0.029-0.01-0.044
				c-0.304-1.11-2.258-0.12-1.988,0.871c-0.003,0.137-0.007,0.273-0.01,0.41c-0.516,0.348-0.639,0.81-0.529,1.177
				c-1.011,0.4-2.757,0.327-3.498,0.33c-2.811,0.011-5.622-0.016-8.433-0.095c-6.635-0.185-13.262-0.523-19.901-0.523
				c-6.309,0.001-12.585,0.205-18.883,0.554c-3.049,0.169-6.108,0.465-9.106,1.064c-3.303,0.66-6.9,2.586-10.199,1.047
				c-1.047-0.488-2.213,1.202-1.282,1.514c1.456,0.836,2.965,1.088,4.523,0.971c3.766,1.727,5.489,7.597,7.891,10.547
				c3.363,4.129,8.189,6.271,13.425,6.746c5.588,0.507,11.146-0.734,16.585-1.855c5.486-1.13,11.266-2.61,15.577-6.395
				c4.686-4.115,7.454-10.011,13.137-12.799c0.615-0.163,1.197-0.389,1.671-0.706c0.057-0.026,0.106-0.064,0.148-0.109
				c0.351-0.262,0.634-0.577,0.806-0.962C251.49,256.513,251.534,255.96,251.277,255.276z"/>
			<path style="fill:#F3796A;" d="M237.857,266.86c-2.108,2.323-4.019,4.566-6.852,6.047c-2.684,1.404-5.614,2.252-8.555,2.927
				c-10.708,2.457-24.31,5.365-31.783-5.102c-1.931-2.704-3.631-6.685-6.542-8.552c0.04-0.01,0.079-0.019,0.118-0.03
				c2.767-0.733,5.484-1.524,8.302-2.064c6.115-1.172,12.238-1.533,18.453-1.609c11.505-0.142,22.988,0.885,34.485,0.704
				c0.211-0.003,0.441-0.012,0.683-0.025C242.973,261.141,240.344,264.12,237.857,266.86z"/>
			<path style="fill:#FFFFFF;" d="M194.672,266.573c1.089,0.378,2.235,0.625,3.394,0.76c3.439,0.402,6.924,0.067,10.365-0.129
				c4.463-0.254,8.944-0.396,13.375-1.03c2.188-0.313,4.363-0.745,6.482-1.378c1.968-0.588,3.947-1.33,5.712-2.391
				c1.274-0.766,2.349-1.764,3.128-3.035c0.048-0.077,0.091-0.157,0.136-0.236c-8.753-0.198-17.503-0.764-26.266-0.656
				c-6.214,0.077-12.338,0.437-18.453,1.609c-1.121,0.215-2.225,0.47-3.323,0.745c0.622,1.227,1.331,2.409,2.264,3.428
				C192.398,265.252,193.485,266.001,194.672,266.573z"/>
			<path style="fill:#B15137;" d="M230.114,271.238c-3.275-0.495-6.576-0.815-9.882-0.99c-1.84-0.098-3.691-0.2-5.533-0.114
				c-3.027,0.141-6.051,0.429-9.058,0.796c-3.684,0.45-7.413,0.998-10.973,2.074c-0.511,0.155-1.029,0.321-1.538,0.513
				c7.749,7.089,19.701,4.524,29.321,2.317c2.94-0.675,5.87-1.523,8.555-2.927c0.686-0.359,1.317-0.763,1.911-1.201
				C231.984,271.536,231.049,271.38,230.114,271.238z"/>
			<path style="opacity:0.65;fill:#92422B;" d="M224.314,288.966c-3.525,1.751-7.605,2.255-11.499,2.166
				c-1.973-0.045-3.994-0.174-5.917-0.635c-2.243-0.537-4.369-1.444-6.625-1.932c-0.28-0.06-0.854,0.379-0.486,0.624
				c3.991,2.667,8.099,3.903,12.889,4.001c4.242,0.087,8.674-0.427,12.273-2.831C225.825,289.774,225.406,288.424,224.314,288.966z"
				/>
		</g>
		<path style="fill:#0D0808;" d="M307.271,170.133c-4.606-0.576-9.789-0.576-17.85-4.031c-8.061-3.455-27.063-4.606-41.457-1.727
			c-14.395,2.879-19.916,11.274-21.592,12.956c-2.801,2.81-10.364,3.455-11.804,3.167c-1.44,0.288-9.003-0.357-11.804-3.167
			c-1.676-1.682-7.197-10.076-21.592-12.956c-14.395-2.879-33.396-1.727-41.457,1.727c-8.061,3.455-13.243,3.455-17.85,4.031
			c-4.606,0.576-4.606,4.031-4.606,4.031c0.576,8.637,3.616,7.807,5.182,10.94c0.576,1.152,1.152,7.485,1.727,15.547
			c0.576,8.061,7.485,21.304,18.425,25.911c10.94,4.606,32.245,6.91,45.488,0c13.243-6.91,16.122-23.032,18.426-31.093
			c2.303-8.061,8.061-6.334,8.061-6.334s5.758-1.727,8.061,6.334c2.303,8.061,5.182,24.184,18.425,31.093
			c13.243,6.91,34.548,4.606,45.488,0c10.94-4.606,17.85-17.85,18.426-25.911c0.576-8.061,1.152-14.395,1.727-15.547
			c1.566-3.133,4.606-2.303,5.182-10.94C311.877,174.163,311.877,170.709,307.271,170.133z M184.914,222.243
			c-13.243,6.91-34.548,5.758-45.488-2.879c-10.94-8.637-10.94-28.214-9.788-35.7c0,0,0-9.788,17.274-12.667
			s32.82-3.455,44.912,4.606c0,0,7.485,4.031,8.061,13.819C200.46,199.211,198.157,215.333,184.914,222.243z M289.709,219.364
			c-10.94,8.637-32.245,9.788-45.488,2.879c-13.243-6.91-15.546-23.032-14.971-32.82c0.576-9.788,8.061-13.819,8.061-13.819
			c12.092-8.061,27.638-7.485,44.912-4.606c17.274,2.879,17.274,12.667,17.274,12.667
			C300.649,191.15,300.649,210.727,289.709,219.364z"/>
	</g>
</g>
</svg>
